<svg id="レイヤー_1" data-name="レイヤー 1" xmlns="http://www.w3.org/2000/svg" viewBox="0 0 302 446.05054"><defs><style>.cls-1{fill:#fff;}</style></defs><path class="cls-1" d="M294.41837,71.39371C263.46021,23.37694,219.8662,0,150.36825,0,50.544,0,9.477,54.967,9.477,117.51533c0,75.81508,53.0712,114.98712,135.205,127.62357C226.816,257.774,247.6653,285.57305,247.6653,326.64085c0,37.27548-20.84932,70.12961-92.24263,70.12961-56.86211,0-82.134-19.586-110.565-53.0718L0,374.65682c32.85372,47.38513,84.66121,71.39372,155.42267,71.39372C264.09206,446.05054,302,380.97475,302,324.11324c0-80.8701-51.17564-111.196-135.205-125.72841-63.81168-11.37154-102.98333-29.06241-102.98333-80.8695,0-45.49057,34.11723-68.235,84.66121-68.235,54.96635,0,80.23844,22.11343,103.615,52.43934Z"/></svg>